<svg xmlns="http://www.w3.org/2000/svg" width="9.563" height="12.375" viewBox="0 0 9.563 12.375">
  <path d="M559.436,26.7a1.568,1.568,0,0,0,1.148-.423,1.431,1.431,0,0,0,.479-1.084,1.223,1.223,0,0,0-.479-0.979,1.522,1.522,0,0,0-1.154-.335h-4.991V22.084a1.408,1.408,0,0,0-.389-1.1,1.483,1.483,0,0,0-1.1-.46,1.431,1.431,0,0,0-1.449,1.564v6.235a4.256,4.256,0,0,0,1.355,3.259,4.573,4.573,0,0,0,3.362,1.326h3.215a1.563,1.563,0,0,0,1.148-.416,1.424,1.424,0,0,0,.479-1.08,1.23,1.23,0,0,0-.479-0.983,1.507,1.507,0,0,0-1.148-.343h-3.217a1.9,1.9,0,0,1-1.225-.558,1.808,1.808,0,0,1-.555-1.206V26.7h5Z" transform="translate(-551.5 -20.531)"/>
</svg>
