<svg xmlns="http://www.w3.org/2000/svg" width="10.125" height="12.531" viewBox="0 0 10.125 12.531">
  <path d="M529.776,26.949a3.473,3.473,0,0,0-1.883-1V25.884a2.727,2.727,0,0,0,1.282-1.052,2.937,2.937,0,0,0,.464-1.633,2.834,2.834,0,0,0-.336-1.4,2.436,2.436,0,0,0-1.018-.968,4.117,4.117,0,0,0-1.351-.442,15.807,15.807,0,0,0-2.117-.105h-4.481V32.82h5.078a8.376,8.376,0,0,0,2.176-.236,4.48,4.48,0,0,0,1.572-.791,3.369,3.369,0,0,0,.963-1.17,3.6,3.6,0,0,0,.358-1.641A2.852,2.852,0,0,0,529.776,26.949Zm-3.519-2.394a1.017,1.017,0,0,1-.528.488,1.855,1.855,0,0,1-.677.177q-0.329.017-1.146,0.017h-0.4V22.585h0.222q0.852,0,1.282.013a2.053,2.053,0,0,1,.746.147,0.946,0.946,0,0,1,.489.463,1.406,1.406,0,0,1,.158.623A1.693,1.693,0,0,1,526.257,24.554ZM527,29.735a1.266,1.266,0,0,1-.635.543,2.716,2.716,0,0,1-.971.227q-0.477.017-1.721,0.017h-0.171V27.382h0.588q0.852,0,1.359.013a2.511,2.511,0,0,1,.8.122,1.446,1.446,0,0,1,.715.5,1.521,1.521,0,0,1,.239.909A1.639,1.639,0,0,1,527,29.735Z" transform="translate(-520.344 -20.281)"/>
</svg>
