<svg xmlns="http://www.w3.org/2000/svg" xmlns:xlink="http://www.w3.org/1999/xlink"><symbol id="icon-s-facebook" viewBox="0 0 7 14">
  <path d="M497.053,20.121a10.169,10.169,0,0,0-2.207-.278c-2.368,0-3.311,1.11-3.311,3.093v1.447H490.05v2.339h1.485V33.84h2.89V26.722h2.107l0.2-2.339h-2.307v-1.13c0-.634.06-1.031,0.983-1.031a7.661,7.661,0,0,1,1.284.139Z" transform="translate(-490.063 -19.844)"/>
</symbol><symbol id="icon-s-google+" viewBox="0 0 604.35 604.35">
<g>
	<g id="google-plus">
		<path d="M516.375,255v-76.5h-51V255h-76.5v51h76.5v76.5h51V306h76.5v-51H516.375z M320.025,341.7l-28.051-20.4
			c-10.2-7.649-20.399-17.85-20.399-35.7s12.75-33.15,25.5-40.8c33.15-25.5,66.3-53.55,66.3-109.65c0-53.55-33.15-84.15-51-99.45
			h43.35l30.6-35.7h-158.1c-112.2,0-168.3,71.4-168.3,147.9c0,58.65,45.9,122.4,127.5,122.4h20.4c-2.55,7.65-10.2,20.4-10.2,33.15
			c0,25.5,10.2,35.7,22.95,51c-35.7,2.55-102,10.2-150.45,40.8c-45.9,28.05-58.65,66.3-58.65,94.35
			c0,58.65,53.55,114.75,168.3,114.75c137.7,0,204.001-76.5,204.001-150.449C383.775,400.35,355.725,372.3,320.025,341.7z
			 M126.225,109.65c0-56.1,33.15-81.6,68.85-81.6c66.3,0,102,89.25,102,140.25c0,66.3-53.55,79.05-73.95,79.05
			C159.375,247.35,126.225,168.3,126.225,109.65z M218.024,568.65c-84.15,0-137.7-38.25-137.7-94.351c0-56.1,51-73.95,66.3-81.6
			c33.15-10.2,76.5-12.75,84.15-12.75s12.75,0,17.85,0c61.2,43.35,86.7,61.2,86.7,102C335.324,530.4,286.875,568.65,218.024,568.65z
			"/>
	</g>
</g>
  <g>
</g>
  <g>
</g>
  <g>
</g>
  <g>
</g>
  <g>
</g>
  <g>
</g>
  <g>
</g>
  <g>
</g>
  <g>
</g>
  <g>
</g>
  <g>
</g>
  <g>
</g>
  <g>
</g>
  <g>
</g>
  <g>
</g>
</symbol><symbol id="icon-s-twitter" viewBox="0 0 9.563 12.375">
  <path d="M559.436,26.7a1.568,1.568,0,0,0,1.148-.423,1.431,1.431,0,0,0,.479-1.084,1.223,1.223,0,0,0-.479-0.979,1.522,1.522,0,0,0-1.154-.335h-4.991V22.084a1.408,1.408,0,0,0-.389-1.1,1.483,1.483,0,0,0-1.1-.46,1.431,1.431,0,0,0-1.449,1.564v6.235a4.256,4.256,0,0,0,1.355,3.259,4.573,4.573,0,0,0,3.362,1.326h3.215a1.563,1.563,0,0,0,1.148-.416,1.424,1.424,0,0,0,.479-1.08,1.23,1.23,0,0,0-.479-0.983,1.507,1.507,0,0,0-1.148-.343h-3.217a1.9,1.9,0,0,1-1.225-.558,1.808,1.808,0,0,1-.555-1.206V26.7h5Z" transform="translate(-551.5 -20.531)"/>
</symbol><symbol id="icon-s-vk" viewBox="0 0 10.125 12.531">
  <path d="M529.776,26.949a3.473,3.473,0,0,0-1.883-1V25.884a2.727,2.727,0,0,0,1.282-1.052,2.937,2.937,0,0,0,.464-1.633,2.834,2.834,0,0,0-.336-1.4,2.436,2.436,0,0,0-1.018-.968,4.117,4.117,0,0,0-1.351-.442,15.807,15.807,0,0,0-2.117-.105h-4.481V32.82h5.078a8.376,8.376,0,0,0,2.176-.236,4.48,4.48,0,0,0,1.572-.791,3.369,3.369,0,0,0,.963-1.17,3.6,3.6,0,0,0,.358-1.641A2.852,2.852,0,0,0,529.776,26.949Zm-3.519-2.394a1.017,1.017,0,0,1-.528.488,1.855,1.855,0,0,1-.677.177q-0.329.017-1.146,0.017h-0.4V22.585h0.222q0.852,0,1.282.013a2.053,2.053,0,0,1,.746.147,0.946,0.946,0,0,1,.489.463,1.406,1.406,0,0,1,.158.623A1.693,1.693,0,0,1,526.257,24.554ZM527,29.735a1.266,1.266,0,0,1-.635.543,2.716,2.716,0,0,1-.971.227q-0.477.017-1.721,0.017h-0.171V27.382h0.588q0.852,0,1.359.013a2.511,2.511,0,0,1,.8.122,1.446,1.446,0,0,1,.715.5,1.521,1.521,0,0,1,.239.909A1.639,1.639,0,0,1,527,29.735Z" transform="translate(-520.344 -20.281)"/>
</symbol></svg>